# xmcd
#
# Track frame offsets:
#	150
#	18760
#	32145
#	43305
#	61675
#	80150
#	96190
#	112572
#	129752
#	145415
#	165400
#	179067
#	193772
#	210365
#	228435
#
# Disc length: 3268 seconds
#
# Revision: 1
# Processed by: cddbd v1.5.2PL0 Copyright (c) Steve Scherf et al.
# Submitted via: audiograbber 1.83.01
#
DISCID=c10cc20f
DTITLE=Various Artist - MM6073
DYEAR=1900
DGENRE=Karaoke
TTITLE0=Alan Jackson - Livin' On Love
TTITLE1=Patty Loveless - I Try To Think About Elvis
TTITLE2=George Strait - The Big One
TTITLE3=Lari White - Now I Know
TTITLE4=Little Texas - Kick A Little
TTITLE5=Randy Travis - This Is Me
TTITLE6=Brooks and Dunn - Not The Cheatin' Kind
TTITLE7=John Berry - What's In It For Me
TTITLE8=Bryan White - Eugene You Genius
TTITLE9=Suzy Bogguss - Souvenirs
TTITLE10=Ken Mellons - Jukebox Junkie
TTITLE11=Cheryl Wright - He's A Good Ol' Boy
TTITLE12=Collin Raye - Man Of My Word
TTITLE13=Lorrie Morgan - Heart Over Mind
TTITLE14=Neal McCoy - Country Back In Me
EXTD=
EXTT0=
EXTT1=
EXTT2=
EXTT3=
EXTT4=
EXTT5=
EXTT6=
EXTT7=
EXTT8=
EXTT9=
EXTT10=
EXTT11=
EXTT12=
EXTT13=
EXTT14=
PLAYORDER=
